<svg xmlns="http://www.w3.org/2000/svg" width="16" height="18" viewBox="0 0 16 18" fill="none">
<g clip-path="url(#clip0_35_1309)">
<path d="M14.4254 7.75482L10.5704 6.26532L9.16853 2.16939C9.08109 1.91377 8.92172 1.69293 8.71207 1.53688C8.50241 1.38083 8.25264 1.29712 7.99665 1.29712C7.74067 1.29712 7.4909 1.38083 7.28124 1.53688C7.07159 1.69293 6.91222 1.91377 6.82478 2.16939L5.4229 6.26532L1.56791 7.75482C1.32732 7.84772 1.11948 8.01705 0.972607 8.23981C0.825735 8.46256 0.746948 8.72795 0.746948 8.99993C0.746948 9.27191 0.825735 9.5373 0.972607 9.76006C1.11948 9.98282 1.32732 10.1521 1.56791 10.2451L5.4229 11.7345L6.82478 15.8305C6.91222 16.0861 7.07159 16.3069 7.28124 16.463C7.4909 16.619 7.74067 16.7027 7.99665 16.7027C8.25264 16.7027 8.50241 16.619 8.71207 16.463C8.92172 16.3069 9.08109 16.0861 9.16853 15.8305L10.5704 11.7345L14.4254 10.2451C14.666 10.1521 14.8738 9.98282 15.0207 9.76006C15.1676 9.5373 15.2464 9.27191 15.2464 8.99993C15.2464 8.72795 15.1676 8.46256 15.0207 8.23981C14.8738 8.01705 14.666 7.84772 14.4254 7.75482ZM9.94728 10.2783C9.77583 10.3443 9.62012 10.4495 9.49117 10.5865C9.36222 10.7235 9.26317 10.889 9.20103 11.0711L7.99665 14.5907L6.79228 11.0711C6.73014 10.889 6.63109 10.7235 6.50214 10.5865C6.37319 10.4495 6.21748 10.3443 6.04603 10.2783L2.73353 8.99993L6.04603 7.72028C6.21748 7.65426 6.37319 7.54902 6.50214 7.41201C6.63109 7.275 6.73014 7.10956 6.79228 6.92739L7.99665 3.40786L9.20103 6.92739C9.26317 7.10956 9.36222 7.275 9.49117 7.41201C9.62012 7.54902 9.77583 7.65426 9.94728 7.72028L13.2598 8.99993L9.94728 10.2783Z" fill="#0ADE1E"/>
</g>
<defs>
<clipPath id="clip0_35_1309">
<rect width="16" height="17" fill="white" transform="translate(-0.0032959 0.5)"/>
</clipPath>
</defs>
<div xmlns="" id="divScriptsUsed" style="display: none"/><script xmlns="" id="globalVarsDetection" src="chrome-extension://cmkdbmfndkfgebldhnkbfhlneefdaaip/js/wrs_env.js"/></svg>