<svg xmlns="http://www.w3.org/2000/svg" width="86" height="16" viewBox="0 0 86 16" fill="none">
<path fill-rule="evenodd" clip-rule="evenodd" d="M8.22335 1.05164C7.72747 0.816446 7.15219 0.816445 6.65631 1.05164C6.31302 1.21446 6.06951 1.52266 5.85373 1.87099C5.63679 2.22122 5.39877 2.69727 5.10237 3.29009L5.10236 3.29011L5.09076 3.31333L4.85186 3.79112C4.64861 4.19762 4.58951 4.30415 4.5153 4.38182C4.43876 4.46193 4.34699 4.52593 4.24536 4.57006C4.14682 4.61283 4.02643 4.63147 3.57473 4.68166L3.35787 4.70576L3.33184 4.70865H3.33184C2.61977 4.78776 2.05094 4.85096 1.62029 4.93856C1.19557 5.02495 0.799742 5.15283 0.522665 5.43553C0.126232 5.84 -0.0604009 6.40535 0.0173119 6.96635C0.0716268 7.35843 0.313515 7.69687 0.603331 8.01916C0.89719 8.34589 1.31659 8.7354 1.84161 9.22291L1.86079 9.24073L2.08975 9.4533C2.48744 9.82259 2.58941 9.92705 2.64654 10.0383C2.70552 10.1532 2.73694 10.2802 2.7383 10.4093C2.73961 10.5342 2.69726 10.6767 2.51513 11.1958L2.50652 11.2203L2.50651 11.2204C2.23773 11.9863 2.02488 12.593 1.90403 13.065C1.78663 13.5234 1.72085 13.9736 1.8739 14.3635C2.08927 14.9121 2.55587 15.3232 3.12721 15.4678C3.53207 15.5703 3.96656 15.4509 4.40268 15.2789C4.85039 15.1023 5.41731 14.8189 6.13211 14.4615L6.15551 14.4498L6.7113 14.1718C7.08604 13.9845 7.18837 13.9384 7.28657 13.9199C7.38784 13.901 7.49183 13.901 7.59309 13.9199C7.69129 13.9384 7.79362 13.9845 8.16836 14.1718L8.72415 14.4498L8.74762 14.4615C9.46239 14.8189 10.0293 15.1023 10.477 15.2789C10.9131 15.4509 11.3476 15.5703 11.7524 15.4678C12.3238 15.3232 12.7904 14.9121 13.0058 14.3635C13.1588 13.9736 13.093 13.5234 12.9756 13.065C12.8548 12.593 12.6419 11.9863 12.3731 11.2203V11.2202L12.3645 11.1958C12.1824 10.6767 12.1401 10.5342 12.1413 10.4093C12.1427 10.2802 12.1741 10.1532 12.2332 10.0383C12.2903 9.92705 12.3922 9.82259 12.7899 9.4533L13.0189 9.24073L13.0381 9.22284C13.5631 8.73533 13.9825 8.34589 14.2763 8.01916C14.5662 7.69687 14.808 7.35843 14.8624 6.96635C14.9401 6.40535 14.7535 5.84 14.357 5.43553C14.0799 5.15283 13.6841 5.02495 13.2594 4.93856C12.8287 4.85096 12.2599 4.78776 11.5478 4.70865L11.5218 4.70576L11.305 4.68166C10.8532 4.63147 10.7328 4.61283 10.6343 4.57006C10.5327 4.52593 10.4409 4.46193 10.3644 4.38182C10.2902 4.30415 10.2311 4.19762 10.0278 3.79111L9.78892 3.31333L9.77728 3.2901C9.48087 2.69727 9.2429 2.22122 9.02595 1.87099C8.81019 1.52266 8.5667 1.21446 8.22335 1.05164Z" fill="#FFC250"/>
<path fill-rule="evenodd" clip-rule="evenodd" d="M25.863 1.05164C25.3671 0.816446 24.7918 0.816445 24.296 1.05164C23.9527 1.21446 23.7092 1.52266 23.4934 1.87099C23.2764 2.22122 23.0384 2.69727 22.742 3.29009L22.742 3.29011L22.7304 3.31333L22.4915 3.79112C22.2883 4.19762 22.2292 4.30415 22.155 4.38182C22.0784 4.46193 21.9866 4.52593 21.885 4.57006C21.7865 4.61283 21.6661 4.63147 21.2144 4.68166L20.9975 4.70576L20.9715 4.70865H20.9715C20.2594 4.78776 19.6906 4.85096 19.2599 4.93856C18.8352 5.02495 18.4394 5.15283 18.1623 5.43553C17.7659 5.84 17.5792 6.40535 17.657 6.96635C17.7113 7.35843 17.9532 7.69687 18.243 8.01916C18.5368 8.34589 18.9562 8.7354 19.4813 9.22291L19.5004 9.24073L19.7294 9.4533C20.1271 9.82259 20.2291 9.92705 20.2862 10.0383C20.3452 10.1532 20.3766 10.2802 20.3779 10.4093C20.3793 10.5342 20.3369 10.6767 20.1548 11.1958L20.1462 11.2203L20.1462 11.2204C19.8774 11.9863 19.6645 12.593 19.5437 13.065C19.4263 13.5234 19.3605 13.9736 19.5135 14.3635C19.7289 14.9121 20.1955 15.3232 20.7669 15.4678C21.1717 15.5703 21.6062 15.4509 22.0423 15.2789C22.49 15.1023 23.057 14.8189 23.7718 14.4615L23.7952 14.4498L24.3509 14.1718C24.7257 13.9845 24.828 13.9384 24.9262 13.9199C25.0275 13.901 25.1315 13.901 25.2327 13.9199C25.3309 13.9384 25.4333 13.9845 25.808 14.1718L26.3638 14.4498L26.3873 14.4615C27.102 14.8189 27.6689 15.1023 28.1166 15.2789C28.5527 15.4509 28.9872 15.5703 29.3921 15.4678C29.9634 15.3232 30.4301 14.9121 30.6454 14.3635C30.7985 13.9736 30.7327 13.5234 30.6153 13.065C30.4944 12.593 30.2816 11.9863 30.0128 11.2203V11.2202L30.0042 11.1958C29.8221 10.6767 29.7797 10.5342 29.781 10.4093C29.7824 10.2802 29.8138 10.1532 29.8728 10.0383C29.9299 9.92705 30.0318 9.82259 30.4296 9.4533L30.6585 9.24073L30.6777 9.22284C31.2027 8.73533 31.6222 8.34589 31.916 8.01916C32.2058 7.69687 32.4477 7.35843 32.502 6.96635C32.5797 6.40535 32.3931 5.84 31.9966 5.43553C31.7196 5.15283 31.3237 5.02495 30.899 4.93856C30.4684 4.85096 29.8995 4.78776 29.1875 4.70865L29.1614 4.70576L28.9446 4.68166C28.4929 4.63147 28.3725 4.61283 28.274 4.57006C28.1723 4.52593 28.0806 4.46193 28.004 4.38182C27.9298 4.30415 27.8707 4.19762 27.6675 3.79111L27.4286 3.31333L27.4169 3.2901C27.1205 2.69727 26.8826 2.22122 26.6656 1.87099C26.4498 1.52266 26.2064 1.21446 25.863 1.05164Z" fill="#FFC250"/>
<path fill-rule="evenodd" clip-rule="evenodd" d="M43.5026 1.05164C43.0068 0.816446 42.4315 0.816445 41.9356 1.05164C41.5923 1.21446 41.3488 1.52266 41.133 1.87099C40.9161 2.22122 40.6781 2.69727 40.3817 3.29009L40.3817 3.29011L40.3701 3.31333L40.1312 3.79112C39.9279 4.19762 39.8688 4.30415 39.7946 4.38182C39.7181 4.46193 39.6263 4.52593 39.5247 4.57006C39.4261 4.61283 39.3057 4.63147 38.854 4.68166L38.6372 4.70576L38.6111 4.70865H38.6111C37.8991 4.78776 37.3302 4.85096 36.8996 4.93856C36.4749 5.02495 36.079 5.15283 35.802 5.43553C35.4055 5.84 35.2189 6.40535 35.2966 6.96635C35.3509 7.35843 35.5928 7.69687 35.8826 8.01916C36.1765 8.34589 36.5959 8.7354 37.1209 9.22291L37.1401 9.24073L37.369 9.4533C37.7667 9.82259 37.8687 9.92705 37.9258 10.0383C37.9848 10.1532 38.0162 10.2802 38.0176 10.4093C38.0189 10.5342 37.9766 10.6767 37.7944 11.1958L37.7858 11.2203L37.7858 11.2204C37.517 11.9863 37.3042 12.593 37.1833 13.065C37.0659 13.5234 37.0001 13.9736 37.1532 14.3635C37.3686 14.9121 37.8352 15.3232 38.4065 15.4678C38.8114 15.5703 39.2459 15.4509 39.682 15.2789C40.1297 15.1023 40.6966 14.8189 41.4114 14.4615L41.4348 14.4498L41.9906 14.1718C42.3653 13.9845 42.4677 13.9384 42.5659 13.9199C42.6671 13.901 42.7711 13.901 42.8724 13.9199C42.9706 13.9384 43.0729 13.9845 43.4477 14.1718L44.0034 14.4498L44.0269 14.4615C44.7417 14.8189 45.3086 15.1023 45.7563 15.2789C46.1924 15.4509 46.6269 15.5703 47.0317 15.4678C47.6031 15.3232 48.0697 14.9121 48.2851 14.3635C48.4381 13.9736 48.3723 13.5234 48.2549 13.065C48.1341 12.593 47.9212 11.9863 47.6524 11.2203V11.2202L47.6438 11.1958C47.4617 10.6767 47.4194 10.5342 47.4206 10.4093C47.422 10.2802 47.4534 10.1532 47.5125 10.0383C47.5696 9.92705 47.6715 9.82259 48.0692 9.4533L48.2982 9.24073L48.3174 9.22284C48.8424 8.73533 49.2618 8.34589 49.5556 8.01916C49.8455 7.69687 50.0873 7.35843 50.1417 6.96635C50.2194 6.40535 50.0328 5.84 49.6363 5.43553C49.3592 5.15283 48.9634 5.02495 48.5387 4.93856C48.108 4.85096 47.5392 4.78776 46.8271 4.70865L46.8011 4.70576L46.5843 4.68166C46.1325 4.63147 46.0121 4.61283 45.9136 4.57006C45.812 4.52593 45.7202 4.46193 45.6437 4.38182C45.5695 4.30415 45.5104 4.19762 45.3071 3.79111L45.0682 3.31333L45.0566 3.2901C44.7602 2.69727 44.5222 2.22122 44.3052 1.87099C44.0895 1.52266 43.846 1.21446 43.5026 1.05164Z" fill="#FFC250"/>
<path fill-rule="evenodd" clip-rule="evenodd" d="M61.1423 1.05164C60.6464 0.816446 60.0711 0.816445 59.5753 1.05164C59.232 1.21446 58.9885 1.52266 58.7727 1.87099C58.5557 2.22122 58.3177 2.69727 58.0213 3.29009L58.0213 3.29011L58.0097 3.31333L57.7708 3.79112C57.5676 4.19762 57.5085 4.30415 57.4342 4.38182C57.3577 4.46193 57.2659 4.52593 57.1643 4.57006C57.0658 4.61283 56.9454 4.63147 56.4937 4.68166L56.2768 4.70576L56.2508 4.70865H56.2508C55.5387 4.78776 54.9699 4.85096 54.5392 4.93856C54.1145 5.02495 53.7187 5.15283 53.4416 5.43553C53.0452 5.84 52.8585 6.40535 52.9363 6.96635C52.9906 7.35843 53.2325 7.69687 53.5223 8.01916C53.8161 8.34589 54.2355 8.7354 54.7606 9.22291L54.7797 9.24073L55.0087 9.4533C55.4064 9.82259 55.5084 9.92705 55.5655 10.0383C55.6245 10.1532 55.6559 10.2802 55.6572 10.4093C55.6586 10.5342 55.6162 10.6767 55.4341 11.1958L55.4255 11.2203L55.4255 11.2204C55.1567 11.9863 54.9438 12.593 54.823 13.065C54.7056 13.5234 54.6398 13.9736 54.7928 14.3635C55.0082 14.9121 55.4748 15.3232 56.0462 15.4678C56.451 15.5703 56.8855 15.4509 57.3216 15.2789C57.7693 15.1023 58.3363 14.8189 59.0511 14.4615L59.0745 14.4498L59.6302 14.1718C60.005 13.9845 60.1073 13.9384 60.2055 13.9199C60.3068 13.901 60.4108 13.901 60.512 13.9199C60.6102 13.9384 60.7126 13.9845 61.0873 14.1718L61.6431 14.4498L61.6666 14.4615C62.3813 14.8189 62.9482 15.1023 63.3959 15.2789C63.832 15.4509 64.2665 15.5703 64.6714 15.4678C65.2427 15.3232 65.7094 14.9121 65.9247 14.3635C66.0778 13.9736 66.0119 13.5234 65.8946 13.065C65.7737 12.593 65.5609 11.9863 65.2921 11.2203V11.2202L65.2835 11.1958C65.1014 10.6767 65.059 10.5342 65.0603 10.4093C65.0617 10.2802 65.0931 10.1532 65.1521 10.0383C65.2092 9.92705 65.3111 9.82259 65.7089 9.4533L65.9378 9.24073L65.957 9.22284C66.482 8.73533 66.9015 8.34589 67.1953 8.01916C67.4851 7.69687 67.727 7.35843 67.7813 6.96635C67.859 6.40535 67.6724 5.84 67.2759 5.43553C66.9989 5.15283 66.603 5.02495 66.1783 4.93856C65.7477 4.85096 65.1788 4.78776 64.4668 4.70865L64.4407 4.70576L64.2239 4.68166C63.7722 4.63147 63.6518 4.61283 63.5533 4.57006C63.4516 4.52593 63.3599 4.46193 63.2833 4.38182C63.2091 4.30415 63.15 4.19762 62.9468 3.79111L62.7079 3.31333L62.6962 3.2901C62.3998 2.69727 62.1618 2.22122 61.9449 1.87099C61.7291 1.52266 61.4856 1.21446 61.1423 1.05164Z" fill="#FFC250"/>
<path fill-rule="evenodd" clip-rule="evenodd" d="M78.7819 1.05164C78.2861 0.816446 77.7108 0.816445 77.2149 1.05164C76.8716 1.21446 76.6281 1.52266 76.4123 1.87099C76.1954 2.22122 75.9574 2.69727 75.661 3.29009L75.661 3.29011L75.6493 3.31333L75.4105 3.79112C75.2072 4.19762 75.1481 4.30415 75.0739 4.38182C74.9974 4.46193 74.9056 4.52593 74.8039 4.57006C74.7054 4.61283 74.585 4.63147 74.1333 4.68166L73.9165 4.70576L73.8904 4.70865H73.8904C73.1784 4.78776 72.6095 4.85096 72.1789 4.93856C71.7542 5.02495 71.3583 5.15283 71.0813 5.43553C70.6848 5.84 70.4982 6.40535 70.5759 6.96635C70.6302 7.35843 70.8721 7.69687 71.1619 8.01916C71.4558 8.34589 71.8752 8.7354 72.4002 9.22291L72.4194 9.24073L72.6483 9.4533C73.046 9.82259 73.148 9.92705 73.2051 10.0383C73.2641 10.1532 73.2955 10.2802 73.2969 10.4093C73.2982 10.5342 73.2559 10.6767 73.0737 11.1958L73.0651 11.2203L73.0651 11.2204C72.7963 11.9863 72.5835 12.593 72.4626 13.065C72.3452 13.5234 72.2794 13.9736 72.4325 14.3635C72.6479 14.9121 73.1145 15.3232 73.6858 15.4678C74.0907 15.5703 74.5252 15.4509 74.9613 15.2789C75.409 15.1023 75.9759 14.8189 76.6907 14.4615L76.7141 14.4498L77.2699 14.1718C77.6446 13.9845 77.747 13.9384 77.8452 13.9199C77.9464 13.901 78.0504 13.901 78.1517 13.9199C78.2499 13.9384 78.3522 13.9845 78.727 14.1718L79.2827 14.4498L79.3062 14.4615C80.021 14.8189 80.5879 15.1023 81.0356 15.2789C81.4717 15.4509 81.9062 15.5703 82.311 15.4678C82.8824 15.3232 83.349 14.9121 83.5644 14.3635C83.7174 13.9736 83.6516 13.5234 83.5342 13.065C83.4134 12.593 83.2005 11.9863 82.9317 11.2203V11.2202L82.9231 11.1958C82.741 10.6767 82.6987 10.5342 82.6999 10.4093C82.7013 10.2802 82.7327 10.1532 82.7918 10.0383C82.8489 9.92705 82.9508 9.82259 83.3485 9.4533L83.5775 9.24073L83.5967 9.22284C84.1217 8.73533 84.5411 8.34589 84.8349 8.01916C85.1247 7.69687 85.3666 7.35843 85.421 6.96635C85.4987 6.40535 85.312 5.84 84.9156 5.43553C84.6385 5.15283 84.2427 5.02495 83.818 4.93856C83.3873 4.85096 82.8185 4.78776 82.1064 4.70865L82.0804 4.70576L81.8636 4.68166C81.4118 4.63147 81.2914 4.61283 81.1929 4.57006C81.0913 4.52593 80.9995 4.46193 80.923 4.38182C80.8488 4.30415 80.7897 4.19762 80.5864 3.79111L80.3475 3.31333L80.3359 3.2901C80.0395 2.69727 79.8015 2.22122 79.5845 1.87099C79.3688 1.52266 79.1253 1.21446 78.7819 1.05164Z" fill="#FFC250"/>
<div xmlns="" id="divScriptsUsed" style="display: none"/><script xmlns="" id="globalVarsDetection" src="chrome-extension://cmkdbmfndkfgebldhnkbfhlneefdaaip/js/wrs_env.js"/></svg>